# xmcd CD database file
#
# Track frame offsets:
#	150
#	13470
#	33703
#	50130
#	68008
#	85578
#	100638
#	119203
#	140833
#	153943
#	175240
#
# Disc length: 2522 seconds
#
# Revision: 5
# Processed by: cddbd v1.4PL0 Copyright (c) Steve Scherf et al.
# Submitted via: CDex 1.40Release
#
DISCID=9c09d80b
DTITLE=Dwight Yoakam - This Time
DYEAR=1993
DGENRE=Country
TTITLE0=Pocket Of A Clown
TTITLE1=A Thousand Miles From Nowhere
TTITLE2=Home For Sale
TTITLE3=This Time
TTITLE4=Two Doors Down
TTITLE5=Ain't That Lonely Yet
TTITLE6=King Of Fools
TTITLE7=Fast As You
TTITLE8=Try Not To Look So Pretty
TTITLE9=Wild Ride
TTITLE10=Lonesome Roads
EXTD=YEAR: 1993 ID3G: 2
EXTT0=
EXTT1=
EXTT2=
EXTT3=
EXTT4=
EXTT5=
EXTT6=
EXTT7=
EXTT8=
EXTT9=
EXTT10=
PLAYORDER=
